<?xml version="1.0" encoding="UTF-8" standalone="no"?>
<svg version="1.1" width="785.6" height="89.6" viewBox="0 0 785.6 89.6" xmlns="http://www.w3.org/2000/svg">
  <defs>
    <clipPath id="keep-prefix">
      <rect x="0" y="0" width="495" height="89.6" />
    </clipPath>
  </defs>

  <!-- Original logo clipped through the dot after saifm -->
  <g clip-path="url(#keep-prefix)">
    <path
      style="fill:#ffffff;stroke-width:0.8"
      d="M 32.5 2.1484375 C 27.148515 2.3713867 21.949888 3.4284708 17.912109 5.2753906 C 10.742023 8.5550582 5.5996094 15.998994 5.5996094 23.101562 C 5.5996094 26.865153 8.5845029 32.490252 12.242188 35.621094 C 14.027276 37.149063 15.726925 38.400391 16.019531 38.400391 C 16.312138 38.400391 17.211908 37.669756 18.019531 36.777344 C 19.458393 35.187419 19.423855 35.08682 16.238281 31.777344 C 14.450241 29.919757 12.585138 27.613419 12.09375 26.652344 C 10.869663 24.258234 10.97209 20.355423 12.328125 17.759766 C 16.379998 10.003862 27.213472 6.0673711 39.378906 7.9296875 C 42.888854 8.4669993 46.712831 9.293237 47.878906 9.765625 C 53.406051 12.00472 55.331571 12.996911 59.193359 15.595703 L 63.353516 18.394531 L 65.373047 16.806641 L 67.390625 15.220703 L 64.859375 12.855469 C 62.299113 10.463825 53.141005 5.6652653 48 4.0214844 C 43.35501 2.536299 37.851485 1.9254883 32.5 2.1484375 z M 130.05469 2.5683594 C 128.31715 2.8227668 128.17837 3.0668933 119.91992 20.400391 C 116.77538 27.00039 112.05008 36.900391 109.41992 42.400391 C 106.78976 47.900391 103.63308 54.559219 102.40625 57.199219 C 101.17943 59.839219 97.616809 67.328435 94.488281 73.841797 C 91.359745 80.35516 88.800781 85.866644 88.800781 86.089844 C 88.800781 87.055468 94.701138 85.886861 95.308594 84.800781 C 96.042946 83.487829 107.37193 59.832158 111.65234 50.673828 C 120.0247 32.760396 129.58681 13.599609 130.1543 13.599609 C 130.51458 13.599609 131.32631 14.769219 131.95898 16.199219 C 132.59165 17.629219 136.5902 26.000781 140.84375 34.800781 C 145.09731 43.600781 149.66573 53.14 150.99609 56 C 152.32646 58.86 156.17048 66.870782 159.53906 73.800781 L 165.66406 86.400391 L 168.43164 86.400391 C 169.95388 86.400391 171.19922 86.213343 171.19922 85.984375 C 171.19922 85.554047 168.0699 78.846325 159.81836 61.599609 C 157.18694 56.099609 153.57949 48.540781 151.80273 44.800781 C 150.02597 41.060781 145.71898 32.060781 142.23242 24.800781 C 138.74587 17.540782 134.93613 9.5162984 133.76562 6.96875 C 132.104 3.3522502 131.29134 2.3872912 130.05469 2.5683594 z M 711.19922 3.0976562 L 708.59961 3.3496094 L 706 3.5996094 L 705.79102 44.400391 C 705.67657 66.840391 705.75615 85.649219 705.9668 86.199219 C 706.94152 88.744267 708.29187 87.556161 722.54688 71.599609 C 728.44308 64.99961 744.2662 47.360391 757.71094 32.400391 C 771.15568 17.440392 782.21034 4.8403906 782.27734 4.4003906 C 782.3443 3.9603906 781.01013 3.5996094 779.31055 3.5996094 C 775.98075 3.5996094 776.68776 2.9033369 752.0625 30.359375 C 748.72772 34.077508 742.21961 41.292757 737.59961 46.392578 C 732.97961 51.492399 725.43656 59.881157 720.83594 65.033203 C 716.23533 70.18525 712.18533 74.400391 711.83594 74.400391 C 711.48656 74.400391 711.19922 58.357877 711.19922 38.75 L 711.19922 3.0976562 z M 271.19922 3.1796875 L 271.19922 5.9902344 L 271.19922 8.8007812 L 298.85156 8.8007812 L 326.50195 8.8007812 L 326.25 6.1992188 L 326 3.5996094 L 298.59961 3.3886719 L 271.19922 3.1796875 z M 516.80078 3.1992188 L 516.80078 6 L 516.80078 8.8007812 L 531.40039 8.8085938 C 547.10639 8.8188082 551.34394 9.4928949 558.69531 13.144531 C 564.88764 16.220444 570.80627 22.312543 573.51758 28.400391 C 574.10546 29.720391 574.85859 31.352735 575.19141 32.027344 C 575.52423 32.701953 576.23588 35.851953 576.77148 39.027344 C 579.35791 54.361436 571.84107 69.943929 558.59961 76.699219 C 552.08621 80.02211 546.9271 80.800781 531.43164 80.800781 L 516.80078 80.800781 L 516.80078 83.599609 L 516.80078 86.400391 L 531.80078 86.388672 C 542.26149 86.380424 548.33065 86.015482 551.85938 85.183594 C 566.89928 81.637962 578.07884 70.766456 582.05859 55.816406 C 583.49185 50.432158 583.50149 39.205373 582.07812 33.859375 C 578.0983 18.911532 566.19132 7.5865487 551.03711 4.3359375 C 547.88543 3.659894 540.53467 3.2460976 531.40039 3.2285156 L 516.80078 3.1992188 z M 238.64062 3.2304688 C 237.48371 3.1968686 236.17159 3.3831887 235.55469 3.8125 C 235.09018 4.1357623 233.95376 6.0200001 233.0293 8 C 232.10485 9.98 228.66108 17.180001 225.375 24 C 222.08892 30.82 217.68968 40.000391 215.59961 44.400391 C 211.68889 52.633255 206.20589 64.150784 199.70898 77.779297 C 197.66925 82.058029 196 85.749205 196 85.980469 C 196 86.211741 197.27888 86.400391 198.8418 86.400391 L 201.68359 86.400391 L 207.74219 73.800781 C 211.07427 66.870782 215.33482 57.96 217.21094 54 C 220.95049 46.106819 227.307 32.814752 235.49805 15.763672 C 238.41373 9.6941839 240.80078 4.3853558 240.80078 3.9648438 C 240.80078 3.5176162 239.79754 3.2640689 238.64062 3.2304688 z M 447.55078 3.3398438 C 445.77459 3.5745655 443.00171 7.6065713 431.26953 26 C 412.82701 54.913744 400.61291 73.970956 400.29297 74.333984 C 399.68338 75.025651 399.24288 73.633099 395.62305 59.599609 C 393.58014 51.679609 389.90726 37.46 387.46094 28 C 385.01462 18.540001 382.60605 9.1792188 382.10742 7.1992188 C 381.41125 4.4347492 380.82827 3.5996094 379.59961 3.5996094 C 377.97391 3.5996094 375.1517 8.712221 365.64648 28.865234 C 363.69171 33.009738 359.33271 42.159219 355.96094 49.199219 C 352.58917 56.239219 348.64268 64.51961 347.19141 67.599609 C 345.74014 70.679609 343.20648 75.968634 341.56055 79.351562 C 339.91462 82.734487 338.78677 85.720353 339.05469 85.988281 C 339.32262 86.256217 340.62659 86.369137 341.95117 86.238281 C 343.98552 86.037313 344.69874 85.316361 346.54492 81.599609 C 349.32883 75.994994 360.97198 51.745732 364.40625 44.400391 C 373.27217 25.437629 377.64311 16.800781 378.37109 16.800781 C 378.82715 16.800781 379.19922 17.031028 379.19922 17.314453 C 379.19922 17.805462 386.36861 45.808441 389.69531 58.3125 C 393.15921 71.332243 396.18454 82.895089 396.57422 84.599609 C 397.59051 89.045049 399.77048 86.43161 415.25195 62.199219 C 437.30341 27.683167 442.40078 20 443.25 20 C 443.70426 20 444 33.083295 444 53.199219 L 444 86.400391 L 446.80078 86.400391 L 449.59961 86.400391 L 449.59961 45.175781 C 449.59961 7.5224305 449.48498 3.9063166 448.27344 3.4414062 C 448.03716 3.3507379 447.80452 3.3063121 447.55078 3.3398438 z M 642.75977 3.3886719 C 617.30941 3.58638 615.60483 3.6901354 615.34375 5.046875 C 615.19063 5.8425768 615.26441 7.0121862 615.50781 7.6464844 C 615.88121 8.6195641 620.20163 8.8007812 643.16016 8.8007812 L 670.36914 8.8007812 L 670.88672 6.7421875 C 671.17088 5.6099725 671.06413 4.3434244 670.65039 3.9296875 C 670.20184 3.4811382 658.9418 3.2629636 642.75977 3.3886719 z M 616.80078 42.378906 L 616.80078 44.789062 L 616.80078 47.199219 L 644.45312 47.199219 L 672.10547 47.199219 L 671.85352 45 L 671.59961 42.800781 L 644.19922 42.589844 L 616.80078 42.378906 z M 271.19922 46.376953 L 271.19922 66.388672 L 271.19922 86.400391 L 274 86.400391 L 276.80078 86.400391 L 276.80078 68.800781 L 276.80078 51.199219 L 298.05273 51.199219 L 319.30664 51.199219 L 319.05273 49 L 318.80078 46.800781 L 295 46.587891 L 271.19922 46.376953 z M 54.576172 49.253906 C 53.886084 49.050907 53.560338 49.371182 53.060547 50.054688 C 51.459551 52.244179 51.656793 52.676312 56.261719 57.103516 C 62.496828 63.097989 63.000321 69.164132 57.742188 74.916016 C 47.840044 85.74799 21.18793 84.314257 8.7089844 72.277344 L 5.8183594 69.488281 L 3.6152344 71.384766 L 1.4101562 73.28125 L 5.4667969 76.929688 C 10.727865 81.65984 16.227529 84.239102 27.199219 87.121094 C 34.571251 89.057542 47.37281 87.594512 54.882812 83.958984 C 69.229309 77.01396 70.942983 60.687797 58.279297 51.589844 C 56.321726 50.183469 55.26626 49.456905 54.576172 49.253906 z M 483.19922 79.199219 C 480.16543 79.199219 478.50461 82.007243 479.94531 84.699219 C 480.55575 85.839835 481.6278 86.400391 483.19922 86.400391 C 486.20143 86.400391 487.76889 83.884513 486.5 81.099609 C 485.86538 79.706757 484.98487 79.199219 483.19922 79.199219 z M 644.45312 80.988281 C 625.69257 80.842585 617.1438 81.044537 616.77539 81.640625 C 616.4822 82.115025 616.40844 83.379612 616.61328 84.451172 L 616.98633 86.400391 L 644.54297 86.400391 L 672.10156 86.400391 L 671.85156 83.800781 L 671.59961 81.199219 L 644.45312 80.988281 z " />
  </g>

  <!-- New ".ca" suffix in the same thin geometric style -->
  <g fill="none" stroke="#ffffff" stroke-width="5.6" stroke-linecap="round" stroke-linejoin="round">
    <!-- c -->
    <path d="M 575.5 15
             C 566 7.5, 550.5 6.5, 539.5 12.5
             C 527.5 19, 520.5 31.5, 520.5 44.5
             C 520.5 57.5, 527.5 70, 539.5 76.5
             C 550.5 82.5, 566 81.5, 575.5 74" />
    <!-- a -->
    <path d="M 613 84.5 L 651.5 4.5 L 690 84.5" />
  </g>
</svg>
